# File created by Blade
# Date/Time:  Mon Nov 18 17:26:10 2013
# Frame Rate: 100.000 fps
#------------------------------------------------------
:FULLY-SPECIFIED
:DEGREES
282
root -40.090270 -2.889952 38.323220 9.525459 -0.674207 12.957520
Spine 22.233351 -0.975042 0.534955
Spine1 8.002383 -0.154872 1.659772
Spine2 -22.489421 -1.805199 -1.093613
NeckDummy -0.104687 0.305990 0.952780 13.556080 -0.063693 -0.908928
Neck 1.545918 -15.380248 40.495052
Head -0.500495 -0.094004 0.265045 -4.725548 -5.869166 -2.347859
LeftShoulderDummy -0.159189 0.309475 0.966857 13.548783 -0.263555 -0.652459
LeftShoulder 6.792171 -7.874521 15.824428
LeftArm 14.311504 41.491247 18.967167
LeftForeArm 42.018402
LeftForeArmRoll 23.491061
LeftHand -34.023360 -24.983764 15.163036
LeftHandThumb1 13.751985 5.692158
LeftHandIndex1 0.386068 40.670708
LeftHandPinky1 1.954448 60.457010
RightShoulderDummy -0.097969 0.340064 0.932859 13.519821 0.057685 0.968494
RightShoulder 5.861513 4.757492 6.583863
RightArm -2.100851 60.034796 36.648273
RightForeArm 101.361589
RightForeArmRoll 22.742061
RightHand -45.826291 -24.465572 8.699161
RightHandThumb1 10.890418 5.359236
RightHandIndex1 5.609827 34.587831
RightHandPinky1 10.454333 62.019622
LeftUpLeg -10.708800 22.692945 -39.981542
LeftLeg 38.680580
LeftFoot -0.014577 -0.664657 -1.142899 -26.907419 24.518597 2.242184
LeftToeBase 0.484730
RightUpLeg 0.780174 17.977998 -38.048688
RightLeg 54.234704
RightFoot -0.556863 0.799433 0.902772 -22.328304 5.364310 -20.519919
RightToeBase -1.148618
283
root -40.067239 -2.894019 38.309604 9.498078 -0.683200 12.830998
Spine 22.217639 -0.969799 0.524649
Spine1 7.979876 -0.133276 1.624105
Spine2 -22.506678 -1.729562 -1.069690
NeckDummy -0.101821 0.308048 0.954312 13.552126 -0.075894 -0.965218
Neck 1.504848 -15.332189 40.508055
Head -0.507118 -0.096380 0.262423 -4.696743 -5.882798 -2.416267
LeftShoulderDummy -0.157170 0.310740 0.969003 13.546038 -0.281404 -0.695659
LeftShoulder 6.840855 -7.736731 15.869349
LeftArm 14.275805 41.755153 18.866490
LeftForeArm 41.967519
LeftForeArmRoll 23.330133
LeftHand -33.820331 -24.989398 15.089191
LeftHandThumb1 13.797334 5.716411
LeftHandIndex1 0.304239 40.663291
LeftHandPinky1 1.863908 60.369953
RightShoulderDummy -0.095854 0.343330 0.934058 13.516096 0.072305 1.020952
RightShoulder 5.898952 4.677142 6.658077
RightArm -2.293535 59.920524 36.597516
RightForeArm 101.449900
RightForeArmRoll 22.607400
RightHand -45.797954 -24.364612 8.968511
RightHandThumb1 10.791644 5.188995
RightHandIndex1 5.677076 34.500364
RightHandPinky1 10.468895 61.932356
LeftUpLeg -10.521692 22.749569 -40.000384
LeftLeg 38.827447
LeftFoot -0.011620 -0.668085 -1.146065 -26.855088 24.436108 2.150845
LeftToeBase 0.473700
RightUpLeg 0.705694 17.980080 -38.085165
RightLeg 54.213017
RightFoot -0.553308 0.795730 0.909909 -22.402680 5.341385 -20.392149
RightToeBase -1.205687
284
root -40.030847 -2.896319 38.294631 9.446490 -0.684996 12.708065
Spine 22.202987 -0.909034 0.490874
Spine1 7.982124 -0.106276 1.562546
Spine2 -22.517551 -1.703226 -1.080438
NeckDummy -0.100518 0.308953 0.955970 13.528607 -0.056125 -0.973720
Neck 1.537592 -15.291206 40.537577
Head -0.515089 -0.095875 0.261212 -4.684223 -5.971615 -2.449770
LeftShoulderDummy -0.155560 0.311268 0.970296 13.522281 -0.259223 -0.710934
LeftShoulder 6.916445 -7.688763 15.904090
LeftArm 14.118239 41.908976 18.664159
LeftForeArm 41.957888
LeftForeArmRoll 23.226741
LeftHand -33.913559 -24.990968 15.225607
LeftHandThumb1 13.690719 5.687197
LeftHandIndex1 0.338431 40.560565
LeftHandPinky1 1.780651 60.232715
RightShoulderDummy -0.094676 0.344286 0.936043 13.492505 0.053169 1.028183
RightShoulder 5.941300 4.666088 6.723875
RightArm -2.383385 59.881117 36.618450
RightForeArm 101.536040
RightForeArmRoll 22.453645
RightHand -45.773846 -24.135629 9.148633
RightHandThumb1 11.024468 5.425500
RightHandIndex1 5.655158 34.288176
RightHandPinky1 10.292012 61.638998
LeftUpLeg -10.362225 22.770469 -40.007629
LeftLeg 39.002860
LeftFoot -0.012516 -0.671854 -1.152348 -26.805827 24.381673 2.045018
LeftToeBase 0.478173
RightUpLeg 0.577786 17.991627 -38.040272
RightLeg 54.098273
RightFoot -0.549844 0.788714 0.910590 -22.486619 5.322757 -20.309908
RightToeBase -1.196112
285
root -39.993381 -2.897629 38.277791 9.390114 -0.686615 12.580650
Spine 22.202133 -0.861844 0.460919
Spine1 7.982497 -0.091459 1.498452
Spine2 -22.528590 -1.663715 -1.097228
NeckDummy -0.099161 0.313111 0.958584 13.488566 -0.031812 -1.033027
Neck 1.527748 -15.238946 40.523181
Head -0.511023 -0.098268 0.260636 -4.649702 -5.941838 -2.404451
LeftShoulderDummy -0.153719 0.314501 0.972385 13.481876 -0.234736 -0.763754
LeftShoulder 6.967802 -7.607090 15.946161
LeftArm 14.045560 42.073728 18.461318
LeftForeArm 41.919211
LeftForeArmRoll 23.152066
LeftHand -33.934021 -25.049022 15.247302
LeftHandThumb1 13.710828 5.833809
LeftHandIndex1 0.396508 40.818225
LeftHandPinky1 1.858034 60.529143
RightShoulderDummy -0.093332 0.349580 0.939115 13.451880 0.029318 1.084860
RightShoulder 6.005318 4.577772 6.753537
RightArm -2.442223 59.849395 36.663248
RightForeArm 101.634140
RightForeArmRoll 22.415286
RightHand -45.759843 -24.070972 9.256949
RightHandThumb1 10.961859 5.498175
RightHandIndex1 5.746423 34.295745
RightHandPinky1 10.324064 61.585554
LeftUpLeg -10.155030 22.798778 -39.972587
LeftLeg 39.108940
LeftFoot -0.008272 -0.669378 -1.159827 -26.727960 24.306277 1.970044
LeftToeBase 0.463501
RightUpLeg 0.470248 18.007633 -38.017390
RightLeg 54.017035
RightFoot -0.548770 0.783577 0.900241 -22.506384 5.340842 -20.198772
RightToeBase -1.292055
